<?xml version="1.0" standalone="no"?><!DOCTYPE svg PUBLIC "-//W3C//DTD SVG 1.1//EN" "http://www.w3.org/Graphics/SVG/1.1/DTD/svg11.dtd"><svg t="1650466401758" class="icon" viewBox="0 0 1024 1024" version="1.1" xmlns="http://www.w3.org/2000/svg" p-id="2700" xmlns:xlink="http://www.w3.org/1999/xlink" width="200" height="200"><defs><style type="text/css">@font-face { font-family: feedback-iconfont; src: url("//at.alicdn.com/t/font_1031158_u69w8yhxdu.woff2?t=1630033759944") format("woff2"), url("//at.alicdn.com/t/font_1031158_u69w8yhxdu.woff?t=1630033759944") format("woff"), url("//at.alicdn.com/t/font_1031158_u69w8yhxdu.ttf?t=1630033759944") format("truetype"); }
</style></defs><path d="M42.666667 768l0 128 128 0C170.666667 823.466667 115.2 768 42.666667 768zM42.666667 597.333333l0 85.333333c119.466667 0 213.333333 93.866667 213.333333 213.333333l85.333333 0C341.333333 729.6 209.066667 597.333333 42.666667 597.333333zM810.666667 298.666667 213.333333 298.666667l0 68.266667c170.666667 55.466667 302.933333 187.733333 358.4 358.4L810.666667 725.333333 810.666667 298.666667zM42.666667 426.666667l0 85.333333c213.333333 0 384 170.666667 384 384l85.333333 0C512 635.733333 302.933333 426.666667 42.666667 426.666667zM896 128 128 128C81.066667 128 42.666667 166.4 42.666667 213.333333l0 128 85.333333 0L128 213.333333l768 0 0 597.333333-298.666667 0 0 85.333333 298.666667 0c46.933333 0 85.333333-38.4 85.333333-85.333333L981.333333 213.333333C981.333333 166.4 942.933333 128 896 128z" p-id="2701" fill="#ffffff"></path></svg>