<?xml version="1.0" standalone="no"?><!DOCTYPE svg PUBLIC "-//W3C//DTD SVG 1.1//EN" "http://www.w3.org/Graphics/SVG/1.1/DTD/svg11.dtd"><svg t="1650549998257" class="icon" viewBox="0 0 1024 1024" version="1.1" xmlns="http://www.w3.org/2000/svg" p-id="3704" xmlns:xlink="http://www.w3.org/1999/xlink" width="200" height="200"><defs><style type="text/css">@font-face { font-family: feedback-iconfont; src: url("//at.alicdn.com/t/font_1031158_u69w8yhxdu.woff2?t=1630033759944") format("woff2"), url("//at.alicdn.com/t/font_1031158_u69w8yhxdu.woff?t=1630033759944") format("woff"), url("//at.alicdn.com/t/font_1031158_u69w8yhxdu.ttf?t=1630033759944") format("truetype"); }
</style></defs><path d="M682.666667 170.666667a42.666667 42.666667 0 0 1 42.666666 42.666666v179.2l222.421334-155.733333a21.333333 21.333333 0 0 1 33.578666 17.493333v515.413334a21.333333 21.333333 0 0 1-33.578666 17.493333L725.333333 631.466667V810.666667a42.666667 42.666667 0 0 1-42.666666 42.666666H85.333333a42.666667 42.666667 0 0 1-42.666666-42.666666V213.333333a42.666667 42.666667 0 0 1 42.666666-42.666666h597.333334zM315.733333 376.704a17.066667 17.066667 0 0 0-16.725333 13.653333L298.666667 393.728v236.458667a17.066667 17.066667 0 0 0 23.125333 15.957333l3.114667-1.536 185.813333-118.272a17.066667 17.066667 0 0 0 2.688-26.624l-2.688-2.133333L324.906667 379.306667a17.066667 17.066667 0 0 0-9.173334-2.56z" p-id="3705" fill="#ffffff"></path></svg>